# xmcd
#
# Track frame offsets: 
#        150
#        12033
#        35052
#        47519
#        57681
#        70526
#        80586
#        92797
#        104953
#        113670
#        127727
#        137997
#        149877
#        160637
#        176460
#        188565
#        198282
#
# Disc length: 2839 seconds
#
# Revision: 1
# Processed by: cddbd v1.5.2PL0 Copyright (c) Steve Scherf et al.
# Submitted via: ExactAudioCopy v1.3
#
DISCID=ee0b1511
DTITLE=Various Artist - The best of Country and Western
DYEAR=1996
DGENRE=Country
TTITLE0=Patsy Cline - Just out of reach
TTITLE1=John Denver - Sunshine on my shoulders
TTITLE2=Don Williams - Coming apart
TTITLE3=Willie Nelson - On the road again
TTITLE4=Faron Young - Appartment nr.9
TTITLE5=Johnny Russel - Today I started loving you again
TTITLE6=Del Shannon - She thinks I still care
TTITLE7=Jim Reeves - Four walls
TTITLE8=Loretta Lynn - We've come a long way baby
TTITLE9=John Denver - Annie's song
TTITLE10=Johnny Paycheck - A11
TTITLE11=Skeeter Davis - End of the world
TTITLE12=Charly Pride - Oklahoma morning
TTITLE13=Brenda Lee - You're the one, that I want
TTITLE14=Johnny Dollar - Big, big rollin' man
TTITLE15=Stonewall Jackson - Shake'em up and roll'em
TTITLE16=Jeannie C. Riley - Harper Valley PTA
EXTD=
EXTT0=
EXTT1=
EXTT2=
EXTT3=
EXTT4=
EXTT5=
EXTT6=
EXTT7=
EXTT8=
EXTT9=
EXTT10=
EXTT11=
EXTT12=
EXTT13=
EXTT14=
EXTT15=
EXTT16=
PLAYORDER=
